<mxfile host="app.diagrams.net" modified="2023-11-10T04:33:24.806Z" agent="Mozilla/5.0 (Windows NT 10.0; Win64; x64) AppleWebKit/537.36 (KHTML, like Gecko) Chrome/119.0.0.0 Safari/537.36" etag="oefvFz4dIzyhBuzfVbhd" version="22.1.0" type="github">
  <diagram name="Page-1" id="PEnTNw7WuZ9RqluDj6HM">
    <mxGraphModel dx="1323" dy="720" grid="1" gridSize="10" guides="1" tooltips="1" connect="1" arrows="1" fold="1" page="1" pageScale="1" pageWidth="850" pageHeight="1100" math="0" shadow="0">
      <root>
        <mxCell id="0" />
        <mxCell id="1" parent="0" />
        <mxCell id="VOiP0-5KLsEzF6kRWlZ8-1" value="" style="ellipse;whiteSpace=wrap;html=1;aspect=fixed;" vertex="1" parent="1">
          <mxGeometry x="50" y="20" width="80" height="80" as="geometry" />
        </mxCell>
        <mxCell id="VOiP0-5KLsEzF6kRWlZ8-3" value="ReLu&lt;br&gt;dense network 0" style="rounded=0;whiteSpace=wrap;html=1;" vertex="1" parent="1">
          <mxGeometry x="170" y="10" width="40" height="190" as="geometry" />
        </mxCell>
        <mxCell id="VOiP0-5KLsEzF6kRWlZ8-4" value="" style="ellipse;whiteSpace=wrap;html=1;aspect=fixed;" vertex="1" parent="1">
          <mxGeometry x="240" y="20" width="80" height="80" as="geometry" />
        </mxCell>
        <mxCell id="VOiP0-5KLsEzF6kRWlZ8-5" value="" style="ellipse;whiteSpace=wrap;html=1;aspect=fixed;" vertex="1" parent="1">
          <mxGeometry x="240" y="110" width="80" height="80" as="geometry" />
        </mxCell>
        <mxCell id="VOiP0-5KLsEzF6kRWlZ8-6" value="ReLu&lt;br&gt;dense network 1" style="rounded=0;whiteSpace=wrap;html=1;" vertex="1" parent="1">
          <mxGeometry x="360" y="10" width="40" height="190" as="geometry" />
        </mxCell>
        <mxCell id="VOiP0-5KLsEzF6kRWlZ8-7" value="" style="ellipse;whiteSpace=wrap;html=1;aspect=fixed;" vertex="1" parent="1">
          <mxGeometry x="430" y="20" width="80" height="80" as="geometry" />
        </mxCell>
        <mxCell id="VOiP0-5KLsEzF6kRWlZ8-8" value="" style="ellipse;whiteSpace=wrap;html=1;aspect=fixed;" vertex="1" parent="1">
          <mxGeometry x="430" y="110" width="80" height="80" as="geometry" />
        </mxCell>
        <mxCell id="VOiP0-5KLsEzF6kRWlZ8-9" value="output" style="rounded=0;whiteSpace=wrap;html=1;" vertex="1" parent="1">
          <mxGeometry x="550" y="10" width="40" height="190" as="geometry" />
        </mxCell>
        <mxCell id="VOiP0-5KLsEzF6kRWlZ8-10" value="" style="ellipse;whiteSpace=wrap;html=1;aspect=fixed;" vertex="1" parent="1">
          <mxGeometry x="240" y="200" width="80" height="80" as="geometry" />
        </mxCell>
        <mxCell id="VOiP0-5KLsEzF6kRWlZ8-11" value="" style="ellipse;whiteSpace=wrap;html=1;aspect=fixed;" vertex="1" parent="1">
          <mxGeometry x="240" y="290" width="80" height="80" as="geometry" />
        </mxCell>
        <mxCell id="VOiP0-5KLsEzF6kRWlZ8-12" value="" style="ellipse;whiteSpace=wrap;html=1;aspect=fixed;" vertex="1" parent="1">
          <mxGeometry x="430" y="200" width="80" height="80" as="geometry" />
        </mxCell>
        <mxCell id="VOiP0-5KLsEzF6kRWlZ8-13" value="" style="ellipse;whiteSpace=wrap;html=1;aspect=fixed;" vertex="1" parent="1">
          <mxGeometry x="430" y="290" width="80" height="80" as="geometry" />
        </mxCell>
        <mxCell id="VOiP0-5KLsEzF6kRWlZ8-14" value="" style="ellipse;whiteSpace=wrap;html=1;aspect=fixed;" vertex="1" parent="1">
          <mxGeometry x="240" y="390" width="80" height="80" as="geometry" />
        </mxCell>
        <mxCell id="VOiP0-5KLsEzF6kRWlZ8-15" value="" style="ellipse;whiteSpace=wrap;html=1;aspect=fixed;" vertex="1" parent="1">
          <mxGeometry x="430" y="390" width="80" height="80" as="geometry" />
        </mxCell>
        <mxCell id="VOiP0-5KLsEzF6kRWlZ8-16" value="" style="ellipse;whiteSpace=wrap;html=1;aspect=fixed;" vertex="1" parent="1">
          <mxGeometry x="50" y="110" width="80" height="80" as="geometry" />
        </mxCell>
        <mxCell id="VOiP0-5KLsEzF6kRWlZ8-17" value="" style="ellipse;whiteSpace=wrap;html=1;aspect=fixed;" vertex="1" parent="1">
          <mxGeometry x="630" y="20" width="80" height="80" as="geometry" />
        </mxCell>
        <mxCell id="VOiP0-5KLsEzF6kRWlZ8-18" value="In features = 6" style="text;html=1;strokeColor=none;fillColor=none;align=center;verticalAlign=middle;whiteSpace=wrap;rounded=0;" vertex="1" parent="1">
          <mxGeometry x="40" y="225" width="100" height="30" as="geometry" />
        </mxCell>
        <mxCell id="VOiP0-5KLsEzF6kRWlZ8-19" value="in/out features = 30" style="text;html=1;strokeColor=none;fillColor=none;align=center;verticalAlign=middle;whiteSpace=wrap;rounded=0;" vertex="1" parent="1">
          <mxGeometry x="210" y="480" width="140" height="30" as="geometry" />
        </mxCell>
        <mxCell id="VOiP0-5KLsEzF6kRWlZ8-21" value="output features = 1" style="text;html=1;strokeColor=none;fillColor=none;align=center;verticalAlign=middle;whiteSpace=wrap;rounded=0;" vertex="1" parent="1">
          <mxGeometry x="620" y="120" width="130" height="30" as="geometry" />
        </mxCell>
        <mxCell id="VOiP0-5KLsEzF6kRWlZ8-22" value="in/out features = 30" style="text;html=1;strokeColor=none;fillColor=none;align=center;verticalAlign=middle;whiteSpace=wrap;rounded=0;" vertex="1" parent="1">
          <mxGeometry x="400" y="480" width="140" height="30" as="geometry" />
        </mxCell>
      </root>
    </mxGraphModel>
  </diagram>
</mxfile>
